<svg width="20" height="20" xmlns="http://www.w3.org/2000/svg" version="1.1">
 <g>
  <path id="Fill-6" d="m9.81591,2.08051c0.28689,-0.07173 0.60069,0.03586 0.79793,0.25103c0.38551,0.38552 0.78009,0.77103 1.16551,1.16552c0.29587,0.31379 0.26897,0.85172 -0.04482,1.13862c-1.54207,1.54207 -3.07509,3.08414 -4.61724,4.61724c-0.2869,0.32276 -0.83371,0.35862 -1.1475,0.05379c-0.39457,-0.37655 -0.78009,-0.78 -1.17457,-1.16552c-0.22414,-0.2062 -0.32276,-0.53793 -0.23311,-0.83379c0.06285,-0.25103 0.27793,-0.42138 0.44828,-0.60069c1.37172,-1.36276 2.72552,-2.72552 4.08827,-4.08827c0.21518,-0.19725 0.40345,-0.46621 0.71725,-0.53793"/>
  <path id="Fill-8" d="m13.16003,5.62188c0.29595,-0.14344 0.67241,-0.07172 0.9056,0.16138c0.3944,0.38552 0.78,0.78 1.1744,1.17449c0.32284,0.30482 0.31379,0.86965 -0.01794,1.16551c-1.5331,1.54207 -3.07517,3.08414 -4.61724,4.62621c-0.2062,0.20621 -0.51094,0.30483 -0.79784,0.2331c-0.24216,-0.05379 -0.40345,-0.24207 -0.57388,-0.40344c-0.32267,-0.33173 -0.66336,-0.65449 -0.98621,-0.98621c-0.25991,-0.26 -0.30474,-0.70828 -0.09853,-1.0131c0.12543,-0.17932 0.29577,-0.32276 0.44828,-0.47518c1.34482,-1.34482 2.68965,-2.68965 4.03448,-4.04345c0.17025,-0.15241 0.31379,-0.34068 0.52888,-0.43931"/>
  <path id="Fill-16" d="m2.65251,9.12737c0.32276,-0.17931 0.74414,-0.08965 0.98621,0.17931c1.31784,1.31794 2.62689,2.6269 3.94483,3.94483c0.44827,0.42147 0.83379,0.94138 1.42542,1.18354c0.88768,0.41232 2.01724,0.21517 2.71655,-0.48423l4.43794,-4.43793c0.16146,-0.16138 0.31379,-0.35862 0.54698,-0.43034c0.2869,-0.10759 0.63646,-0.0269 0.85173,0.19724c0.39439,0.38552 0.78,0.78 1.17439,1.17448c0.31379,0.30483 0.29586,0.86069 -0.02681,1.15655c-1.55103,1.56009 -3.11112,3.11113 -4.66207,4.67104c-0.83379,0.82482 -1.92758,1.38078 -3.08422,1.57802c-1.48819,0.25991 -3.07518,-0.10759 -4.30345,-0.99526c-0.47517,-0.32267 -0.8606,-0.75302 -1.26405,-1.14759c-1.36285,-1.36276 -2.72561,-2.72543 -4.07931,-4.07931c-0.27793,-0.25104 -0.35862,-0.69035 -0.17044,-1.0131c0.16147,-0.25104 0.39458,-0.43035 0.60069,-0.64552c0.30492,-0.27793 0.55596,-0.62759 0.90561,-0.85173"/>
 </g>
</svg>